<?xml version="1.0" standalone="no"?>
<!DOCTYPE svg PUBLIC "-//W3C//DTD SVG 20010904//EN"
 "http://www.w3.org/TR/2001/REC-SVG-20010904/DTD/svg10.dtd">
<svg version="1.0" xmlns="http://www.w3.org/2000/svg"
 width="1024.000000pt" height="1024.000000pt" viewBox="0 0 1024.000000 1024.000000"
 preserveAspectRatio="xMidYMid meet">

<g transform="translate(0.000000,1024.000000) scale(0.100000,-0.100000)"
fill="#000000" stroke="none">
<path d="M0 5120 l0 -5120 5120 0 5120 0 0 5120 0 5120 -1877 0 -1878 0 85
-38 c175 -79 338 -191 478 -329 l83 -82 167 45 c472 127 522 136 594 110 69
-25 143 -107 167 -186 18 -60 42 -326 48 -525 5 -179 -6 -318 -33 -412 -4 -14
-2 -23 5 -23 6 0 48 -14 92 -31 166 -64 346 -214 432 -360 106 -179 125 -424
50 -633 -48 -134 -124 -217 -233 -255 -47 -17 -54 -23 -76 -72 -48 -103 -156
-252 -253 -350 -164 -163 -385 -294 -638 -378 -119 -39 -301 -83 -398 -97 -45
-6 -58 -14 -126 -80 l-76 -74 69 -57 c83 -67 207 -213 289 -338 32 -49 63 -95
69 -102 5 -7 47 -24 92 -40 76 -25 96 -27 243 -27 157 -1 162 0 247 32 314
120 541 410 715 917 57 164 84 217 127 250 97 74 234 20 270 -107 l17 -56 116
119 c138 141 193 174 274 167 63 -6 118 -48 137 -104 18 -53 4 -130 -63 -351
-29 -95 -49 -173 -46 -173 3 0 42 7 85 15 106 20 212 21 256 3 91 -40 126
-147 80 -243 -38 -78 -281 -298 -441 -399 -25 -16 -57 -45 -70 -65 -60 -90
-235 -318 -326 -427 -201 -239 -404 -406 -630 -518 -192 -96 -352 -135 -583
-143 l-165 -6 -2 -96 c-1 -53 -4 -121 -7 -152 l-7 -57 38 -6 c59 -11 213 -90
266 -136 58 -51 121 -142 153 -219 85 -212 67 -526 -44 -765 l-40 -84 77 -17
c410 -88 615 -162 705 -254 32 -32 40 -49 43 -88 5 -46 3 -51 -29 -79 -27 -24
-56 -35 -139 -53 -57 -12 -112 -25 -122 -28 -15 -4 -8 -12 34 -40 29 -20 76
-59 106 -87 46 -45 53 -57 53 -90 0 -28 -7 -45 -28 -65 -39 -39 -118 -51 -341
-51 l-182 0 20 -26 c42 -53 21 -123 -47 -155 -43 -21 -53 -22 -231 -15 -188 6
-861 48 -1091 67 -511 41 -700 138 -700 357 0 53 30 163 61 224 11 21 19 39
19 41 0 1 -49 -7 -109 -19 -126 -26 -311 -44 -438 -44 -215 0 -492 44 -691
109 l-115 38 -68 -71 c-56 -58 -65 -72 -51 -78 9 -4 62 -24 117 -44 311 -113
439 -223 391 -338 -20 -49 -58 -65 -175 -72 -56 -4 -101 -10 -101 -13 0 -4 23
-33 50 -66 38 -45 50 -67 50 -93 0 -42 -34 -77 -91 -92 -74 -21 -269 -2 -485
45 -20 4 -21 1 -16 -44 4 -42 1 -52 -24 -80 -21 -23 -41 -34 -69 -37 -61 -9
-882 122 -1155 183 -224 50 -371 111 -464 195 -161 143 -188 335 -81 587 14
35 25 64 23 66 -2 1 -77 7 -168 13 -645 43 -1171 270 -1604 692 -196 191 -325
362 -437 582 -262 515 -320 1067 -174 1651 15 56 69 229 121 383 101 300 126
397 145 564 15 135 6 346 -21 469 -23 109 -81 284 -117 355 -41 81 -51 118
-41 153 16 59 105 81 199 48 133 -47 339 -228 471 -415 69 -97 197 -341 219
-417 11 -40 15 -43 48 -44 20 0 97 -4 172 -8 153 -9 199 -24 236 -80 28 -41
29 -73 4 -126 -26 -57 -154 -226 -244 -321 -42 -45 -77 -86 -77 -90 0 -5 60
-21 133 -36 238 -49 306 -78 343 -151 40 -77 -7 -159 -213 -368 -78 -80 -143
-147 -143 -150 0 -2 24 -5 53 -7 123 -6 294 -24 324 -33 40 -13 80 -59 88
-102 12 -61 -68 -257 -206 -505 l-24 -44 80 -75 c137 -129 281 -212 444 -257
72 -20 81 -16 81 40 0 42 35 244 64 373 l23 104 -93 108 c-175 203 -279 359
-279 420 0 80 48 114 272 189 84 29 153 55 152 59 0 3 -84 71 -186 151 -226
176 -260 205 -280 243 -22 44 -10 90 34 126 20 16 178 100 351 186 173 86 313
157 311 159 -2 2 -152 105 -334 230 -181 125 -342 241 -357 257 -22 23 -28 39
-28 73 0 65 31 95 163 159 107 52 621 275 719 312 l47 17 -131 107 c-205 165
-515 428 -597 506 -70 67 -74 74 -79 123 -8 91 26 120 180 152 92 18 781 180
784 183 1 1 -38 49 -87 107 -116 136 -261 327 -389 515 -138 201 -163 249
-157 299 7 48 50 95 98 104 51 11 1007 -4 1139 -17 63 -7 162 -18 220 -26
l105 -13 57 34 c75 46 265 136 365 173 l78 30 -2267 0 -2268 1 0 -5120z m1199
-3309 c155 -48 283 -188 320 -351 21 -91 25 -87 -96 -95 -183 -13 -163 -18
-180 45 -27 106 -98 165 -198 165 -100 0 -154 -47 -193 -167 -25 -79 -25 -616
0 -699 36 -114 86 -161 182 -167 80 -5 127 10 165 53 38 44 51 91 51 190 l0
80 -99 -2 -100 -2 -3 121 c-2 66 -1 122 1 124 2 2 109 4 237 4 l232 0 7 -87
c12 -143 0 -367 -24 -443 -55 -175 -198 -279 -406 -297 -207 -17 -389 76 -473
244 -60 118 -65 150 -69 483 -4 274 -3 315 15 400 56 276 218 419 474 420 67
0 115 -6 157 -19z m2260 0 c158 -49 256 -155 310 -336 30 -102 41 -216 41
-430 0 -347 -43 -507 -171 -635 -100 -100 -258 -146 -421 -122 -112 16 -191
56 -261 132 -64 69 -98 133 -129 245 -21 75 -22 99 -22 390 0 288 2 316 22
390 12 44 34 104 48 133 53 108 182 215 290 241 72 17 227 13 293 -8z m-1118
-39 c128 -51 216 -141 259 -264 27 -78 38 -249 21 -326 -23 -110 -104 -229
-190 -283 l-25 -16 122 -275 c67 -151 124 -283 128 -292 6 -15 -7 -16 -146
-14 l-152 3 -85 200 c-46 110 -97 228 -111 262 l-27 63 -62 0 -63 0 0 -265 0
-265 -140 0 -140 0 0 751 0 750 278 -3 c259 -3 281 -5 333 -26z m1947 -262
c-2 -160 -2 -290 -2 -290 1 0 73 131 160 290 l159 290 158 0 158 0 -32 -57
c-62 -111 -183 -319 -251 -431 l-69 -114 191 -436 c105 -241 194 -443 197
-450 4 -10 -26 -12 -143 -10 l-149 3 -136 304 -137 303 -52 -76 -51 -77 -2
-227 -2 -227 -140 0 -140 0 -3 748 -2 747 145 0 146 0 -3 -290z m1592 165 l0
-124 -240 -492 c-132 -270 -240 -493 -240 -495 0 -2 113 -4 250 -4 l250 0 0
-130 0 -130 -410 0 -410 0 0 110 c0 94 3 117 24 162 23 52 315 663 414 866
l49 102 -243 0 -244 0 0 130 0 130 400 0 400 0 0 -125z m510 -625 l0 -750
-140 0 -140 0 0 750 0 750 140 0 140 0 0 -750z m520 130 l0 -620 235 0 235 0
0 -130 0 -130 -375 0 -375 0 0 750 0 750 140 0 140 0 0 -620z m900 0 l0 -620
270 0 271 0 -3 -127 -3 -128 -407 -3 -408 -2 0 750 0 750 140 0 140 0 0 -620z
m1474 568 c24 -86 366 -1428 366 -1438 0 -6 -58 -10 -139 -10 l-139 0 -39 158
-39 157 -184 0 -184 0 -31 -130 c-17 -72 -34 -142 -38 -157 l-7 -28 -140 0
c-85 0 -140 4 -140 10 0 5 63 252 139 547 77 296 163 629 192 741 l52 202 158
0 158 0 15 -52z"/>
<path d="M3237 1566 c-50 -18 -74 -41 -102 -96 -42 -83 -50 -148 -50 -415 0
-268 8 -332 51 -417 33 -65 74 -91 150 -96 147 -10 208 61 234 268 21 171 7
495 -25 605 -18 63 -67 122 -119 146 -48 22 -87 23 -139 5z"/>
<path d="M2010 1309 l0 -232 93 5 c135 7 207 51 237 144 19 55 7 174 -22 226
-36 66 -88 88 -210 88 l-98 0 0 -231z"/>
<path d="M9044 1169 l-61 -299 127 0 127 0 -63 296 c-35 163 -64 298 -66 299
-2 2 -31 -131 -64 -296z"/>
<path d="M5205 10169 c-539 -55 -1001 -249 -1260 -531 -146 -160 -242 -338
-339 -629 -113 -339 -172 -602 -241 -1084 -134 -925 -265 -1457 -542 -2210
-193 -522 -251 -770 -260 -1106 -6 -199 3 -314 38 -484 55 -265 154 -480 344
-749 57 -79 50 -116 -68 -366 -87 -183 -105 -286 -66 -366 71 -148 263 -206
1155 -348 l201 -32 -18 40 c-25 56 -24 99 4 131 27 32 65 35 147 11 30 -8 118
-27 195 -41 77 -14 154 -28 170 -32 l30 -6 -28 34 c-95 116 -106 149 -66 185
17 16 41 20 132 24 l112 5 -85 28 c-47 16 -148 44 -225 63 -172 42 -202 55
-211 90 -12 49 7 76 101 139 204 136 318 286 370 486 26 97 24 266 -4 349 -53
157 -186 288 -371 364 -56 24 -100 68 -100 102 0 65 58 112 123 100 18 -3 66
-22 107 -42 292 -140 452 -363 467 -654 7 -125 -7 -222 -48 -344 -23 -70 -27
-91 -17 -98 7 -4 50 -20 95 -34 264 -81 614 -104 918 -59 665 99 1152 487
1359 1082 54 157 77 292 83 488 8 262 -25 488 -112 750 -120 366 -303 658
-576 920 -46 45 -97 91 -113 103 l-30 23 57 57 56 57 -267 1 c-1087 4 -1795
223 -1981 613 -34 72 -36 82 -36 176 0 89 3 106 28 157 35 72 110 140 185 169
107 40 176 44 622 31 921 -27 1483 -34 2265 -29 593 3 830 8 858 16 41 13 75
55 103 131 13 34 18 78 18 180 0 119 -2 142 -23 193 -34 85 -99 175 -167 230
-65 53 -213 130 -285 147 l-47 12 -43 -47 c-94 -102 -227 -175 -396 -217 -111
-28 -329 -30 -439 -6 -208 47 -403 177 -567 378 -39 49 -75 89 -78 89 -3 1
-13 -24 -23 -54 -48 -154 -178 -359 -296 -468 -218 -202 -465 -297 -815 -314
-276 -13 -523 46 -718 170 -92 59 -213 182 -284 290 -136 204 -189 379 -239
787 -16 138 -16 148 0 204 13 46 29 70 69 110 97 96 2 89 1262 92 722 1 1120
6 1158 13 33 5 121 27 198 48 l139 37 -23 24 c-42 45 -215 170 -301 217 -174
95 -345 150 -571 186 -104 17 -187 22 -415 24 -157 2 -325 -1 -375 -6z m-996
-3854 c16 -8 33 -27 39 -42 6 -15 13 -111 15 -213 3 -202 10 -231 58 -250 32
-13 30 -14 209 26 112 25 144 28 315 28 215 1 270 -9 388 -71 99 -52 147 -121
147 -214 0 -78 -56 -164 -120 -184 -18 -6 -12 -14 49 -71 140 -130 178 -211
147 -317 -32 -112 -117 -163 -253 -155 l-68 3 0 -105 c0 -120 -11 -151 -71
-197 -46 -35 -127 -38 -189 -9 -22 11 -108 86 -191 168 l-150 148 -70 0 c-57
0 -78 5 -119 28 l-50 27 -240 1 c-214 0 -249 3 -320 22 -249 68 -414 234 -488
492 -29 100 -54 270 -63 431 -9 157 13 199 101 199 80 0 105 -42 105 -182 0
-193 37 -393 92 -505 42 -86 120 -163 203 -203 102 -49 194 -60 444 -58 l216
3 60 -30 c48 -23 70 -29 112 -26 85 5 123 -19 282 -180 l142 -144 -7 50 c-3
28 -17 84 -30 125 -30 95 -30 115 1 145 29 30 77 32 200 10 85 -16 148 -19
158 -9 22 22 -134 181 -251 257 -61 39 -92 77 -92 112 0 28 53 71 110 90 92
29 151 57 147 69 -6 21 -114 67 -183 78 -107 16 -309 5 -447 -26 -249 -55
-381 -18 -452 129 -25 50 -28 70 -37 245 -6 104 -7 207 -3 227 14 76 87 113
154 78z"/>
<path d="M2756 9848 c39 -64 255 -360 342 -469 108 -136 253 -293 283 -309 14
-8 21 5 49 83 76 217 213 457 341 600 28 32 50 60 48 62 -15 15 -387 37 -703
42 -323 5 -368 4 -360 -9z"/>
<path d="M7645 9691 c-55 -15 -112 -31 -127 -35 -16 -3 -25 -12 -23 -19 10
-28 90 -712 112 -959 3 -38 9 -68 13 -68 4 0 32 18 62 40 101 72 165 196 190
370 20 143 -13 624 -47 676 -20 31 -50 30 -180 -5z"/>
<path d="M7268 9583 c7 -3 16 -2 19 1 4 3 -2 6 -13 5 -11 0 -14 -3 -6 -6z"/>
<path d="M6548 9405 c-3 -3 -124 -6 -269 -5 l-264 0 0 -455 c0 -250 1 -455 1
-455 1 0 21 26 45 58 66 86 124 207 169 351 22 71 50 140 60 154 28 35 80 57
137 57 70 0 118 -35 183 -131 29 -44 55 -79 57 -79 2 0 1 15 -2 33 -3 17 -14
118 -25 222 -28 260 -26 255 -59 255 -15 0 -30 -2 -33 -5z"/>
<path d="M4297 9382 c-22 -24 -21 -70 3 -236 23 -158 54 -305 79 -379 66 -192
211 -376 363 -461 72 -40 207 -81 297 -92 l61 -7 0 597 0 596 -393 0 c-369 0
-395 -1 -410 -18z m793 -578 l0 -587 -52 7 c-132 18 -293 80 -366 141 l-32 27
0 499 0 499 225 0 224 0 1 -586z"/>
<path d="M5071 8584 c0 -11 3 -14 6 -6 3 7 2 16 -1 19 -3 4 -6 -2 -5 -13z"/>
<path d="M3233 8834 c-147 -21 -777 -155 -790 -168 -3 -3 358 -314 502 -433
140 -115 215 -173 225 -173 4 0 11 24 14 53 20 150 113 592 152 720 3 9 2 17
-3 16 -4 -1 -49 -7 -100 -15z"/>
<path d="M7408 8553 c6 -2 18 -2 25 0 6 3 1 5 -13 5 -14 0 -19 -2 -12 -5z"/>
<path d="M7258 8543 c23 -2 59 -2 80 0 20 2 1 4 -43 4 -44 0 -61 -2 -37 -4z"/>
<path d="M5929 8423 l-24 -28 28 24 c15 14 27 26 27 28 0 8 -8 1 -31 -24z"/>
<path d="M3025 7766 c-178 -58 -709 -286 -704 -301 2 -6 111 -84 243 -173 132
-90 282 -193 333 -229 64 -44 95 -60 98 -51 30 82 116 534 130 683 4 39 9 78
11 88 7 22 6 22 -111 -17z"/>
<path d="M697 7621 c50 -150 64 -237 70 -428 9 -296 -22 -463 -167 -893 -146
-432 -175 -583 -175 -900 1 -163 5 -239 19 -315 87 -481 273 -837 605 -1158
346 -334 770 -536 1293 -617 115 -18 320 -31 374 -24 l52 6 -59 82 c-193 269
-323 661 -347 1045 l-7 115 -69 13 c-429 79 -782 428 -944 933 -68 213 -103
444 -127 835 -21 349 -43 484 -112 700 -74 231 -185 421 -341 586 l-90 94 25
-74z"/>
<path d="M4717 7526 c-122 -33 -150 -146 -68 -273 150 -233 574 -376 1316
-445 213 -20 795 -17 960 5 451 60 779 201 1016 436 71 71 179 212 179 235 0
3 -69 6 -154 6 l-154 0 -108 -191 c-149 -263 -195 -311 -294 -311 -87 0 -142
49 -266 232 -42 63 -80 116 -84 118 -4 1 -36 -50 -71 -113 -148 -268 -200
-322 -301 -312 -96 8 -133 50 -304 338 l-77 129 -98 -172 c-55 -95 -114 -187
-133 -205 -60 -56 -151 -63 -215 -15 -53 39 -139 160 -264 374 l-22 38 -67
-108 c-133 -212 -188 -264 -277 -264 -109 0 -177 75 -331 369 -84 160 -80 157
-183 129z"/>
<path d="M5080 7472 c63 -113 134 -232 140 -232 12 0 177 267 169 274 -2 2
-80 6 -172 9 l-169 6 32 -57z"/>
<path d="M5787 7438 c46 -79 150 -233 168 -248 10 -8 30 20 99 143 47 84 86
157 86 160 0 4 -88 7 -195 7 l-194 0 36 -62z"/>
<path d="M6490 7483 c0 -24 187 -344 205 -350 6 -1 21 16 33 40 57 103 162
304 162 310 0 4 -90 7 -200 7 -110 0 -200 -3 -200 -7z"/>
<path d="M7226 7478 c33 -54 159 -247 172 -261 14 -16 17 -14 48 32 18 27 56
92 85 145 l51 96 -182 0 c-142 0 -180 -3 -174 -12z"/>
<path d="M9094 6763 l-219 -226 -12 79 c-7 43 -25 131 -40 194 l-26 115 -73
-222 c-79 -242 -135 -362 -239 -507 -91 -127 -167 -210 -268 -287 -217 -168
-473 -243 -716 -210 -46 6 -86 10 -87 8 -2 -2 12 -43 32 -93 47 -119 96 -293
124 -434 12 -63 24 -125 26 -137 4 -22 8 -23 128 -23 198 0 352 34 521 115
270 130 493 337 794 740 62 83 123 164 136 182 14 17 76 67 139 112 195 137
362 286 299 267 -10 -3 -119 -24 -243 -46 -124 -22 -233 -43 -242 -46 -19 -6
-26 -31 111 399 43 136 78 247 76 247 -1 0 -100 -102 -221 -227z"/>
<path d="M1347 6873 c4 -21 11 -60 17 -87 l11 -49 63 81 c34 44 62 83 62 86 0
3 -36 6 -79 6 l-80 0 6 -37z"/>
<path d="M2631 6629 c-173 -82 -315 -150 -317 -152 -2 -2 94 -81 213 -175 120
-94 221 -168 224 -164 10 10 200 624 197 633 -2 4 -144 -60 -317 -142z"/>
<path d="M1420 6248 c0 -40 21 -253 26 -257 6 -6 51 38 145 140 l79 86 -108
22 c-59 13 -115 25 -124 27 -14 4 -18 -1 -18 -18z"/>
<path d="M2490 5824 c-91 -31 -167 -57 -169 -59 -2 -2 38 -57 88 -122 50 -65
97 -127 104 -137 13 -17 17 -12 47 65 71 184 112 309 102 309 -4 0 -81 -25
-172 -56z"/>
<path d="M1526 5553 c6 -24 34 -94 97 -245 6 -16 14 -28 17 -28 12 0 130 247
130 274 0 2 -39 7 -87 11 -49 3 -105 8 -126 11 -37 6 -38 6 -31 -23z"/>
<path d="M7560 4295 c0 -8 -20 -75 -44 -147 -46 -142 -120 -298 -194 -413
-196 -306 -508 -564 -830 -689 l-55 -21 -59 -135 c-68 -153 -83 -227 -53 -260
40 -45 191 -80 430 -100 227 -19 1003 -69 1074 -70 l44 0 -27 21 c-56 44 -73
120 -35 155 20 18 39 19 270 19 136 0 245 3 241 6 -4 3 -36 26 -72 51 -83 58
-112 91 -112 122 0 55 53 84 205 112 90 16 96 19 74 31 -64 33 -308 88 -595
133 -142 23 -159 72 -71 211 102 160 151 324 152 514 2 222 -77 363 -249 445
-71 33 -94 37 -94 15z"/>
</g>
</svg>
